<svg xmlns="http://www.w3.org/2000/svg" width="408.071" height="500" viewBox="0 0 107.969 132.292"><g fill="#968867"><path d="M22.371 3.855c1.332 7.44 5.158 14.765 10.5 20.103 4.169 4.163 11.268 9.127 21.418 9.127 10.044 0 17.038-4.949 21.138-9.1 5.26-5.328 9.091-12.537 10.788-20.3.02-.093.148-.725.326-1.604A1.736 1.736 0 0084.841 0h-1.755a10.044 10.044 0 00-8.252 4.32l-6.37 9.187c-3.339 4.815-8.614 7.576-14.473 7.576h-.003c-5.86-.002-11.135-2.765-14.473-7.582l-6.36-9.178A10.045 10.045 0 0024.9 0h-1.077a1.735 1.735 0 00-1.717 1.975l.264 1.88"/><path d="M69.713 106.301a3.883 3.883 0 01-3.88-4.07c.099-2.09 1.898-3.697 3.99-3.697h36.411c.958 0 1.735-.776 1.735-1.734v-3.588c0-.958-.777-1.734-1.735-1.734H69.822c-2.091 0-3.89-1.607-3.989-3.696a3.883 3.883 0 013.88-4.07h36.521c.958 0 1.734-.777 1.734-1.735v-3.263c0-.958-.776-1.734-1.734-1.734H69.822c-2.091 0-3.89-1.607-3.989-3.696a3.883 3.883 0 013.88-4.07h36.521c.958 0 1.734-.777 1.734-1.735V55.786l-.415-.825a55.065 55.065 0 01-5.86-24.089 55.067 55.067 0 015.364-24.202 4.634 4.634 0 00-.327-4.598C105.847.747 104.317 0 102.725 0h-6.42c-.825 0-1.536.582-1.7 1.391a937.06 937.06 0 01-.803 3.953c-2.006 9.18-6.569 17.738-12.849 24.098-7.37 7.465-16.591 11.41-26.664 11.41-10.137 0-19.442-3.942-26.907-11.4-6.453-6.446-11.07-15.296-12.666-24.28-.022-.128-.054-.344-.517-3.675A1.735 1.735 0 0012.48 0H5.154C3.842 0 2.558.5 1.661 1.459a4.656 4.656 0 00-.91 4.998l1.163 2.777c5.788 13.825 5.629 29.615-.438 43.32L0 55.889v11.753c0 .958.777 1.734 1.735 1.734h36.338c2.091 0 3.89 1.607 3.989 3.696a3.883 3.883 0 01-3.88 4.07H1.735A1.736 1.736 0 000 78.878v3.263c0 .958.776 1.734 1.734 1.734h36.339c2.09 0 3.89 1.607 3.988 3.696a3.883 3.883 0 01-3.878 4.071H1.734c-.958 0-1.734.776-1.734 1.734v3.588c0 .958.776 1.734 1.734 1.734h36.339c2.09 0 3.89 1.608 3.988 3.696a3.883 3.883 0 01-3.878 4.071H1.734c-.958 0-1.734.777-1.734 1.735v7.262c0 4.515 2.97 8.492 7.3 9.774l1.851.547a157.873 157.873 0 0044.833 6.51c15.082 0 30.17-2.17 44.833-6.51l1.85-.548a10.193 10.193 0 007.301-9.774v-7.424c0-.958-.776-1.735-1.734-1.735H69.713"/></g></svg>