<svg xmlns="http://www.w3.org/2000/svg" width="500mm" height="1757.803" viewBox="0 0 500 465.085"><defs><clipPath id="a" clipPathUnits="userSpaceOnUse"><path d="M0 2.84h370v350H0z"/></clipPath></defs><g clip-path="url(#a)" transform="matrix(1.35652 0 0 -1.35652 0 478.635)" fill="#968867"><path d="M301.559 261.941c.082-3.902-.508-7.851-1.719-11.679a122.198 122.198 0 00-8-19.063c26.68-14.097 44.879-42.187 44.879-74.41 0-17.148-5.16-33.129-13.989-46.41l2.661-43.828c26.328 21.25 43.199 53.828 43.199 90.238 0 46.481-27.461 86.641-67.031 105.152zM76.762 231.238c-3.172 6.012-5.82 12.383-8.012 19.063-1.21 3.789-1.8 7.738-1.719 11.64C27.461 243.43 0 203.27 0 156.82c0-36.441 16.879-68.98 43.2-90.27l2.66 43.829a83.831 83.831 0 00-13.981 46.441c0 32.192 18.2 60.282 44.883 74.418zm215.66-33.91c-.152 2.934-2.113 5.512-4.883 6.492-.82.27-1.641.43-2.461.43a7.222 7.222 0 01-5.43-2.461c-23.558-26.059-57.539-42.5-95.347-42.5-37.821 0-71.84 16.441-95.352 42.5a7.246 7.246 0 01-5.468 2.461c-.782 0-1.602-.16-2.43-.43a7.357 7.357 0 01-4.88-6.531L66.989 45.852c-.578-9.34 2.743-18.442 9.14-25.243a33.882 33.882 0 0124.653-10.62H267.81c9.339 0 18.281 3.831 24.652 10.62a33.848 33.848 0 019.18 25.243z"/><path d="M94.14 268.27c-2.152-2.93-2.73-6.758-1.64-10.2 12.578-38.75 48.91-66.871 91.801-66.871 42.89 0 79.219 28.09 91.789 66.84 1.101 3.43.512 7.301-1.641 10.231-2.109 2.929-5.5 4.8-9.14 4.8H103.281c-3.633 0-7.031-1.871-9.14-4.8zm157.77 75.468a9.08 9.08 0 01-9.101 9.102H126.48c-5 0-9.058-4.059-9.058-9.102v-45.777c0-5 4.058-9.102 9.058-9.102h116.329c5.043 0 9.101 4.102 9.101 9.102zM82.23 288.891h4.29c5 0 9.14 3.789 9.14 8.828V343.5c0 5.039-4.101 9.34-9.14 9.34h-4.29c-17.66 0-32.07-14.531-32.07-32.192v-.109c0-17.617 14.41-31.648 32.07-31.648zm199.84 0h4.34c17.61 0 32.07 14.031 32.07 31.648v.109c0 17.661-14.46 32.192-32.07 32.192h-4.34c-5 0-9.058-4.301-9.058-9.34v-45.781c0-5.039 4.058-8.828 9.058-8.828z"/></g></svg>