<svg xmlns="http://www.w3.org/2000/svg" width="1000" height="300" viewBox="0 0 264.583 79.375"><path d="M51.714 34.93H29.797c-.566 0-1.025.459-1.025 1.024V46.67c0 .565.46 1.026 1.025 1.026h8.55v13.313s-1.92.654-7.228.654c-6.261 0-15.009-2.288-15.009-21.523 0-19.24 9.109-21.77 17.66-21.77 7.402 0 10.59 1.303 12.62 1.931.638.195 1.227-.44 1.227-1.006l2.446-10.353a.955.955 0 00-.391-.8c-.824-.588-5.852-3.4-18.553-3.4-14.63 0-29.64 6.224-29.64 36.148 0 29.925 17.184 34.385 31.664 34.385 11.99 0 19.262-5.124 19.262-5.124.3-.165.332-.585.332-.777v-33.42c0-.565-.458-1.024-1.023-1.024m112.95-26.603c0-.57-.452-1.03-1.018-1.03h-12.34c-.564 0-1.022.46-1.022 1.03l.003 23.848h-19.235V8.327c0-.57-.454-1.03-1.02-1.03h-12.339c-.561 0-1.019.46-1.019 1.03V72.9c0 .57.458 1.034 1.02 1.034h12.339c.565 0 1.019-.464 1.019-1.034V45.28h19.235l-.033 27.621c0 .57.457 1.034 1.022 1.034h12.37c.564 0 1.016-.464 1.018-1.034zM75 16.8c0-4.443-3.562-8.034-7.957-8.034-4.391 0-7.956 3.59-7.956 8.034 0 4.44 3.565 8.04 7.956 8.04 4.395 0 7.958-3.6 7.958-8.04m-.883 42.48V29.472c0-.566-.456-1.029-1.02-1.029H60.795c-.565 0-1.07.582-1.07 1.148v42.706c0 1.255.782 1.629 1.795 1.629h11.083c1.216 0 1.514-.599 1.514-1.65zm137.445-30.74h-12.246c-.562 0-1.018.463-1.018 1.033v31.662s-3.112 2.277-7.528 2.277c-4.415 0-5.587-2.004-5.587-6.327V29.573c0-.57-.456-1.033-1.018-1.033h-12.429c-.56 0-1.02.463-1.02 1.033v29.702c0 12.843 7.157 15.985 17.003 15.985 8.078 0 14.59-4.464 14.59-4.464s.31 2.352.451 2.631c.14.278.506.56.901.56l7.907-.036c.56 0 1.02-.463 1.02-1.03l-.004-43.348c0-.57-.458-1.033-1.022-1.033m28.64 34.933c-4.248-.13-7.129-2.057-7.129-2.057v-20.45s2.842-1.742 6.33-2.053c4.41-.395 8.659.937 8.659 11.456 0 11.094-1.918 13.283-7.86 13.104m4.83-36.383c-6.955 0-11.686 3.103-11.686 3.103V8.327c0-.57-.456-1.03-1.018-1.03h-12.376c-.563 0-1.02.46-1.02 1.03v64.575c0 .57.457 1.032 1.022 1.032h8.586c.387 0 .68-.199.896-.548.213-.347.521-2.978.521-2.978s5.06 4.796 14.64 4.796c11.247 0 17.696-5.704 17.696-25.609 0-19.904-10.3-22.505-17.261-22.505m-135.448 1.347h-9.257l-.014-12.23c0-.462-.238-.694-.774-.694H86.926c-.49 0-.754.216-.754.688V28.84s-6.321 1.525-6.748 1.648c-.426.124-.74.517-.74.984v7.942c0 .571.457 1.032 1.02 1.032h6.468v19.106c0 14.19 9.954 15.583 16.67 15.583 3.07 0 6.741-.985 7.347-1.21.367-.134.58-.514.58-.925l.01-8.736c0-.57-.481-1.031-1.023-1.031-.54 0-1.92.22-3.34.22-4.547 0-6.088-2.114-6.088-4.852V40.445h9.257c.564 0 1.022-.46 1.022-1.032v-9.947c0-.57-.458-1.029-1.022-1.029" fill="#fff"/></svg>