<svg xmlns="http://www.w3.org/2000/svg" height="478.76" viewBox="0 -11 375 359.07" width="500"><path d="M273.013 225.386V348.07h46.927l2.102-.919C354.212 333.107 375 301.355 375 266.26v-40.873zm0 0M101.987 203.414v-45.745H59.644C63.715 90.589 119.396 37.446 187.5 37.446c68.104 0 123.785 53.143 127.856 120.223h-42.343v45.745h88.494v-45.745h-.003c-1.35-44.47-19.297-86.077-50.897-117.677C277.722 7.11 234.003-11 187.5-11S97.277 7.11 64.396 39.992c-31.6 31.6-49.547 73.208-50.9 117.677h-.004v45.745zm0 0M0 225.386v40.873c0 35.096 20.788 66.848 52.96 80.892l2.1.919h46.927V225.386zm0 0" fill="#968867"/></svg>