<svg xmlns="http://www.w3.org/2000/svg" width="500" height="529.221"><g fill="#968867"><path d="M460.174 166.284c4.594 0 9.057-.681 13.39-1.696-6.593-35.42-11.796-55.912-11.796-55.912-12.681-12.797-31.319-23.217-50.362-31.434-5.739 9-9.217 19.623-9.217 31.086.014 31.956 26 57.956 57.985 57.956zM26.499 164.574c4.304 1.014 8.753 1.695 13.376 1.695 31.97 0 57.97-26 57.97-57.97 0-11.463-3.449-22.057-9.202-31.086-19.03 8.231-37.681 18.637-50.362 31.434 0 .014-5.217 20.507-11.782 55.927z"/><path d="M460.174 180.776c-39.97 0-72.463-32.492-72.463-72.462 0-13.391 3.898-25.768 10.246-36.536-31.869-12.101-61.187-17.942-61.187-17.942l-.551-34.362C310.16 4.518 282.133 1.084 263.307.228c-6.638-.304-19.927-.304-26.565 0-18.826.884-46.869 4.29-72.912 19.246l-.58 34.362s-29.29 5.855-61.187 17.956c6.347 10.768 10.26 23.16 10.26 36.536 0 39.97-32.506 72.463-72.462 72.463-5.493 0-10.812-.74-15.957-1.899C11.18 251.5-4.53 373.208 1.224 509.583h6.608v3.623c0 8.015 6.971 14.493 15.58 14.493h36.506c8.609 0 15.58-6.478 15.58-14.493v-3.623h6.739s-6.942-214.142 30.086-269.01v267.024s69.434 19.131 127.289 21.624V33.88s-32.406 1.884-51.493-5.609c0 0 4.058-13.58 48.608-13.086 6.638.072 19.913-.102 26.565 0 44.13.695 48.608 13.086 48.608 13.086-19.072 7.493-51.492 5.609-51.492 5.609v495.34c57.869-2.492 127.303-21.622 127.303-21.622V240.558c37.028 54.854 30.086 269.025 30.086 269.025h6.71v3.623c0 8 6.957 14.493 15.565 14.493h36.522c8.623 0 15.594-6.493 15.594-14.493v-3.623h6.594c5.739-136.404-9.971-258.14-22.652-330.705-5.145 1.16-10.464 1.898-15.956 1.898z"/></g></svg>