<svg xmlns="http://www.w3.org/2000/svg" width="500" height="500"><g fill="#968867"><path d="M495.618 445.427l-43.67-177.959c-3.276-12.008-15.286-19.652-27.295-17.467 0 0-87.342 17.467-89.525 17.467-16.377 30.57-33.845 60.048-50.222 87.342-7.642 12.01-20.744 19.652-34.936 19.652-14.193 0-27.294-7.642-34.936-19.652-25.111-41.487-52.406-89.525-73.15-134.288l-79.699 31.662c-6.55 3.276-12.01 8.734-14.193 16.377L4.322 444.336c-2.184 7.642 0 16.376 6.55 22.927 5.459 5.459 14.193 7.642 22.927 5.459l123.37-32.753a26.612 26.612 0 0113.102 0l158.307 51.313c3.275 1.092 6.55 1.092 10.918 1.092l136.471-17.469c6.551-1.092 13.102-4.367 16.377-9.826 3.275-5.459 5.458-13.101 3.274-19.652z"/><path d="M249.97 342.8c3.276 0 5.46-2.183 7.642-4.366 25.11-40.396 101.535-171.409 101.535-221.63 0-60.048-49.13-109.178-109.178-109.178-60.047 0-109.177 49.13-109.177 109.178 0 50.221 76.424 181.234 101.535 221.63 2.184 2.183 5.459 4.367 7.643 4.367zm-53.497-227.088c0-28.386 22.927-52.405 52.405-52.405 28.386 0 52.405 22.927 52.405 52.405 0 28.386-22.927 52.405-52.405 52.405s-52.405-22.927-52.405-52.405z"/></g></svg>