<svg xmlns="http://www.w3.org/2000/svg" width="512" height="512"><path d="M151 183.139c-9.007 1.84-17.745 4.713-25.547 9.741l-16.23-25.225A104.294 104.294 0 01151 152.064V33.703L0 63.71v420.586l151-29.998zM91 256H61c0-23.804 7.764-46.26 22.471-64.922l23.555 18.574C96.537 222.968 91 238.993 91 256zm240 73.449V58.292l-150-25v420.416l150 24.999V359.575c-19.759-2.873-38.588-11.054-53.745-24.196l19.658-22.676c9.888 8.58 21.528 14.217 34.087 16.746zM197.157 187.753l12.48-27.275c21.313 9.741 38.965 26.572 49.702 47.388l-26.66 13.77c-7.675-14.884-20.287-26.91-35.522-33.883zm57.906 120.762C245.863 292.636 241 274.472 241 256c0-3.618-.249-7.192-.762-10.664l29.707-4.277A106.694 106.694 0 01271 256c0 13.198 3.472 26.162 10.02 37.485zM361 478.297l151-30.007V27.704L361 57.702zm60-222.268V226h30v30a104.986 104.986 0 01-4.204 29.561l-28.799-8.438A74.15 74.15 0 00421 256.029zm-13.901 43.477l24.434 17.402c-13.638 19.131-33.501 33.281-55.957 39.873l-8.438-28.799c16.025-4.687 30.219-14.809 39.961-28.476z" fill="#968867"/></svg>