<svg xmlns="http://www.w3.org/2000/svg" width="500" height="494.919" viewBox="0 0 132.292 130.947"><g fill="#968867"><path d="M8.685 47.798a32.208 32.208 0 002.881 6.84L8.09 59.023a3.6 3.6 0 00.27 4.769l5.989 5.989a3.584 3.584 0 004.768.27l4.357-3.45a31.654 31.654 0 007.11 3.01l.653 5.605a3.59 3.59 0 003.562 3.179h8.472a3.59 3.59 0 003.562-3.18l.625-5.406a32.018 32.018 0 007.62-3.08l4.216 3.335a3.6 3.6 0 004.768-.27l5.989-5.988a3.584 3.584 0 00.27-4.769L67.04 54.88a31.276 31.276 0 003.137-7.493l5.052-.582a3.59 3.59 0 003.179-3.562V34.77a3.59 3.59 0 00-3.18-3.563l-4.98-.581a31.478 31.478 0 00-3.009-7.408l3.066-3.875a3.6 3.6 0 00-.27-4.768L64.06 8.6a3.584 3.584 0 00-4.768-.27l-3.761 2.98a31.584 31.584 0 00-7.791-3.263l-.568-4.868A3.59 3.59 0 0043.611 0h-8.472a3.59 3.59 0 00-3.563 3.179l-.567 4.868a31.452 31.452 0 00-7.99 3.377l-3.903-3.093a3.6 3.6 0 00-4.768.27l-5.99 5.988a3.584 3.584 0 00-.269 4.768l3.264 4.13a30.872 30.872 0 00-2.952 7.48l-5.222.595A3.59 3.59 0 000 35.124v8.473a3.59 3.59 0 003.179 3.562zm30.697-22.92c7.72 0 14.007 6.287 14.007 14.007s-6.287 14.008-14.007 14.008-14.007-6.287-14.007-14.008c0-7.72 6.286-14.007 14.007-14.007z"/><path d="M123.14 49.884l-4.47-3.775a3.536 3.536 0 00-4.711.128l-2.47 2.313a25.524 25.524 0 00-6.584-2.129l-.695-3.406a3.569 3.569 0 00-3.776-2.838l-5.832.496a3.554 3.554 0 00-3.25 3.42l-.114 3.463a25.595 25.595 0 00-6.287 3.307L82 48.905a3.546 3.546 0 00-4.669.667l-3.775 4.498a3.536 3.536 0 00.128 4.712l2.583 2.753a26.452 26.452 0 00-1.902 6.301l-3.69.752a3.569 3.569 0 00-2.838 3.775l.497 5.833a3.554 3.554 0 003.42 3.25l3.988.128a26.062 26.062 0 002.824 5.393l-2.228 3.363a3.546 3.546 0 00.667 4.67l4.47 3.774a3.536 3.536 0 004.712-.128l2.924-2.739a25.625 25.625 0 006.002 1.959l.81 4.002a3.569 3.569 0 003.775 2.838l5.832-.497a3.554 3.554 0 003.25-3.42l.128-3.917a26.232 26.232 0 006.003-3.037l3.222 2.13a3.546 3.546 0 004.669-.668l3.775-4.47a3.536 3.536 0 00-.128-4.712l-2.597-2.753a25.557 25.557 0 002.043-6.33l3.548-.723a3.569 3.569 0 002.838-3.775l-.496-5.833a3.554 3.554 0 00-3.42-3.25l-3.563-.114a25.772 25.772 0 00-2.966-5.847l1.945-2.923a3.528 3.528 0 00-.64-4.683zm-21.982 33.72c-6.3.539-11.864-4.159-12.39-10.46-.539-6.301 4.16-11.864 10.46-12.39 6.301-.539 11.864 4.159 12.39 10.46.539 6.301-4.159 11.864-10.46 12.39zM29.093 99.3a3.545 3.545 0 00-3.18 3.49l-.042 3.59a3.537 3.537 0 003.094 3.563l2.64.34a20.477 20.477 0 001.873 4.585l-1.703 2.1a3.538 3.538 0 00.213 4.712l2.512 2.568a3.543 3.543 0 004.711.327l2.115-1.632A20.73 20.73 0 0046.038 125l.283 2.724a3.545 3.545 0 003.491 3.18l3.591.042a3.537 3.537 0 003.562-3.094l.327-2.583a21.322 21.322 0 005.109-1.987l1.986 1.604a3.539 3.539 0 004.712-.213l2.569-2.512a3.543 3.543 0 00.327-4.711l-1.52-1.973a20.582 20.582 0 002.158-4.967l2.356-.242a3.545 3.545 0 003.179-3.49l.042-3.591a3.537 3.537 0 00-3.093-3.562l-2.3-.298a21.38 21.38 0 00-1.944-4.968l1.434-1.76a3.538 3.538 0 00-.213-4.711l-2.512-2.569a3.543 3.543 0 00-4.712-.326l-1.717 1.32a20.874 20.874 0 00-5.166-2.243l-.227-2.228a3.545 3.545 0 00-3.491-3.179l-3.59-.042a3.537 3.537 0 00-3.563 3.094l-.284 2.214a21.435 21.435 0 00-5.35 2.185l-1.774-1.447a3.539 3.539 0 00-4.712.212l-2.582 2.527a3.543 3.543 0 00-.327 4.711l1.519 1.959a20.772 20.772 0 00-2.03 4.967zm23.175-4.06c5.151.057 9.281 4.3 9.224 9.452-.056 5.152-4.3 9.281-9.451 9.225-5.152-.057-9.282-4.3-9.225-9.452.057-5.152 4.3-9.281 9.452-9.225z"/></g></svg>