<svg xmlns="http://www.w3.org/2000/svg" height="500" width="500"><path d="M1.186 16.737v466.526h497.628V16.737zm155.509 435.424H32.288v-62.203h124.407zm0-93.305H32.288v-62.203h124.407zm0-93.305H32.288v-62.204h124.407zm0-93.305H32.288v-62.204h124.407zM312.203 452.16H187.797v-62.203h124.406zm0-93.305H187.797v-62.203h124.406zm0-93.305H187.797v-62.204h124.406zm0-93.305H187.797v-62.204h124.406zM467.712 452.16H343.305v-62.203h124.407zm0-93.305H343.305v-62.203h124.407zm0-93.305H343.305v-62.204h124.407zm0-93.305H343.305v-62.204h124.407z" fill="#968867"/></svg>