<svg xmlns="http://www.w3.org/2000/svg" width="500" height="500.001" viewBox="0 0 132.292 132.292"><path d="M130.168 27.99L108.38 49.777l-19.058-6.809-6.808-19.057 21.787-21.787C90.008-2.658 73.605.634 62.223 12.016c-11.172 11.172-14.548 27.18-10.149 41.283-.592.467-1.166.969-1.713 1.516L5.616 99.559c-7.488 7.488-7.488 19.628 0 27.117 7.488 7.488 19.63 7.488 27.118 0L77.479 81.93a19.363 19.363 0 001.514-1.713c14.105 4.4 30.111 1.023 41.283-10.15 11.382-11.382 14.674-27.784 9.892-42.078z" fill="#968867"/></svg>