<svg xmlns="http://www.w3.org/2000/svg" viewBox="0 0 384.016 385.891" height="1458.484" width="1451.399"><path d="M237.49 260.48c-22.056-7.13-44.749-14.76-62.093-24.556-3.616-2.064-10.078-5.34-15.003-7.605l-3.335-1.534 1.748 2.364c.96 1.3 2.644 3.393 2.586 4.017l-4.613 7.589c-.079 2.534-5.19 8.246-12.04 15.376-5.395 5.645-4.076 4.153-8.888 3.99-1.277-.033-1.84.306-2.336 1.407 2.233 6.207 7.1 16.14 9.063 19.86 2.262 4.91 7.38 15.847 8.8 19.653-2.94 3.483-14.239 9.53-17.833 8.026-1.937-.87-2.267-1.41-11.316-18.557-4.375-8.291-7.688-13.917-8.428-14.315-4.278-1.083-8.927-2.798-10.308-1.273-27.604 34.152-37.837 77.95-68.24 110.968-1.676 0-5.71-3.937-15.525-13.858-3.184-3.434-20.52-19.36-19.7-22.494.265-.628 13.075-13.59 27.126-27.912 24.529-25.001 25.632-26.055 27.678-26.45 9.368-3.522 13.28-6.896 32.177-38.468-2.443-8.705-6.144-12.61-1.186-18.504 25.61-26.401 44.629-45.022 71.453-72.806l-1.472-4.092 71.302-68.776 2.076 1.162c5.526-5.068 24.539-23.497 28.657-27.575l3.27-3.239c5.213 2.558 10.52 6.71 13.572 3.835l25.625-25.078c5.676-5.5-11.504-20.472-5.443-26.839l13.956 13.705L339.131.71c.769.69.868.586 2.142-.709l6.068 6.12c-1.063 1.307-1.404 1.48-.548 2.352l-96.345 102.892-8.612 12.128c-7.073 8.434-6.701 7.919-42.588 52.012l-7.271 3.422-15.659 17.038c8.919 6.35 16.675 11.47 25.938 15.83 15.524 8.283 29.92 12.46 45.313 15.675-2.609 11.51-8.57 29.448-10.079 33.011zm-84.809-15.39c1.285-1.653 2.225-3.47 2.108-4.079-9.9-9.438-9.703-10.687-15.037-5.562-4.948 5.225-7.182 8.299-3.529 11.671 1.66.76 3.887 1.782 5.791 1.738 2.925-.085 3.157.007 2.263.9-1.316 1.317-7.431 1.017-9.548-.064-5.575-2.827-3.932-3.765-7.32-.472 3.06 2.575 7.618 8.834 10.203 9.283 2.18.26 2.26.206 7.477-5.086 2.9-2.943 6.317-6.691 7.592-8.33zM274.486 80.235l-2.058-2.214-26.632 27.438 2.231 2.024zm30.73-30.938l-1.786-1.944-20.357 20.987 2.081 1.962zm32.999-45.034l-4.81 4.895 5.01 4.931 4.661-4.935c-4.861-4.89 0 0-4.86-4.891zm-76.303 67.6l-24.19 24.552 2.692 2.691 24.594-24.415s-3.019-2.91-3.096-2.829zM383.169 29.06c-.626-.625-.778-.984-.34-.798.44.187.951.699 1.138 1.138.186.439-.173.286-.798-.34z" fill="#968867"/></svg>