<svg xmlns="http://www.w3.org/2000/svg" width="500" height="500" viewBox="0 0 132.292 132.292"><path d="M95.744 36.758l7.181 7.181-10.51 9.916a7.81 7.81 0 00-2.583 3.748c-1.263 3.194-4.4 9.415-5.476 10.038l-57.78 57.78a3.39 3.39 0 01-4.8-.146l-14.74-14.74a3.382 3.382 0 01-.146-4.801l57.75-57.75c.617-1.083 6.838-4.22 10.039-5.477a7.876 7.876 0 003.747-2.583l9.899-10.527 7.187 7.186.203.204zM131.396.856l.878.878c-7.303 13.379-7.518 18.913-29.37 41.009l-6.57-6.57-.197-.198-6.57-6.57C111.627 7.519 117.16 7.303 130.54 0zM23.148 127.055l.198.046.204.041h.012l-1.833 1.833-18.395-18.394 1.833-1.833v.011l.04.204.047.198.07.198.064.192.082.197.087.192.093.187.11.18.111.18.128.175.134.169.145.169.14.15 14.74 14.741.152.14.168.145.17.134.174.128.18.11.18.111.192.1.187.08.198.082.192.064zM2.49 110.784l19.035 19.035a1.457 1.457 0 010 2.048 1.448 1.448 0 01-2.049 0L.442 112.833a1.448 1.448 0 010-2.049 1.457 1.457 0 012.048 0z" class="cls-1" fill="#968867" fill-rule="evenodd"/></svg>