<svg xmlns="http://www.w3.org/2000/svg" data-name="Capa 1" height="500" width="500"><g stroke="#968867" fill="#968867"><path d="M424.68 263.43c-11.446 0-20.81-9.348-20.81-20.776V66.684c0-8.174-6.23-14.801-13.917-14.801l-129.86 17.855-26.355-2.114-123.69-15.741c-7.687 0-13.917 6.627-13.917 14.802v175.98c0 11.427-9.365 20.776-20.811 20.776-7.686 0-13.919 6.628-13.919 14.8v191.09c0 15.237 12.487 27.704 27.748 27.704h321.7c15.261 0 27.748-12.467 27.748-27.704v-191.09c0-8.172-6.232-14.8-13.918-14.8z" class="cls-1"/><path d="M190.67 62c-15.061-26.296-48.895-35.484-75.188-20.423-26.291 15.067-35.481 48.9-20.413 75.193z" class="cls-1"/><path d="M80.156 24.8 116.09 4.053l34.477 59.715-35.935 20.747zM309.33 62c15.06-26.296 48.895-35.484 75.187-20.423 26.294 15.06 35.484 48.893 20.422 75.186z" class="cls-1"/><path d="m385.36 84.515-35.935-20.747 34.477-59.714L419.836 24.8z" class="cls-1"/></g></svg>