<svg xmlns="http://www.w3.org/2000/svg" data-name="Layer 1" width="500" height="500"><path class="cls-1" d="M251.9 22.169c14.703 0 27.277 15.1 31.212 31.816a56.431 56.431 0 019.952 1.164c0-27.962-11.604-55.598-40.562-55.144-28.507.447-41.082 25.933-41.163 53.83 2.813-.497 6.108-.68 9.494-1.133 3.886-16.823 16.302-30.533 31.068-30.533zm144.447 157.566c0-65.62-53.196-118.815-118.815-118.815H226.87c-65.62 0-118.816 53.196-118.816 118.815L99.008 381.18c0 65.62 62.24 118.816 127.863 118.816h50.66c65.62 0 127.864-53.196 127.864-118.816zm-22.923 37.337c-9.937-42.52-40.403-41.272-40.403-41.272s-119.72-1.206-163.161 0c-39.054 1.087-42.52 39.507-42.52 39.507l-17.038 136.605s1.358-98.61 6.182-145.653c5.102-49.58 53.692-44.014 53.692-44.014h160.432s46.768-4.786 55.946 40.79l7.69 153.797s-12.599-104.69-20.82-139.76z" fill="#968867"/><path class="cls-1" d="M200.86 56.095s-12.43-53.45-56.544-39.806C77.403 36.966 48.153 222 53.632 326.084c2.412 45.84 19.903 123.943 44.546 96.635-8.14-25.558-6.569-56.108-4.747-62.199-6.024-5.485-8.728-27.273-9.727-40.255-7.236-94.089 16.007-265.274 69.66-277.736 25.568-5.94 30.91 17.642 30.91 17.642zm104.413 0s5.742-47.552 56.54-39.806c69.238 10.55 90.47 208.984 84.137 313.02-1.998 32.8-19.587 110.766-37.977 93.41 8.14-25.558 6.568-56.108 4.747-62.199 5.82-6.68 8.727-27.273 9.726-40.255 7.237-94.089-15.12-270-69.66-277.74-25.923-3.678-30.912 17.642-30.912 17.642z" fill="#968867"/></svg>