<svg xmlns="http://www.w3.org/2000/svg" version="1.1" viewBox="0 0 245 240" id="svg8"><style id="style2">.st0{fill:#968867}</style><path class="st0" d="M100.96 106.9c-6.727 0-12.038 5.901-12.038 13.1 0 7.2 5.429 13.1 12.038 13.1 6.727 0 12.038-5.901 12.038-13.1.118-7.2-5.311-13.1-12.038-13.1zm43.078 0c-6.727 0-12.038 5.901-12.038 13.1 0 7.2 5.429 13.1 12.038 13.1 6.727 0 12.038-5.901 12.038-13.1 0-7.2-5.311-13.1-12.038-13.1z" fill="#968867" stroke-width="1.18" id="path4" fill-opacity="1"/><path class="st0" d="M201.57 1.979H43.42c-13.336 0-24.194 10.858-24.194 24.312v159.56c0 13.454 10.858 24.312 24.194 24.312h133.84l-6.255-21.834 15.107 14.045 14.28 13.218 25.376 22.424V26.286c0-13.454-10.858-24.312-24.194-24.312zm-45.556 154.14s-4.249-5.075-7.79-9.56c15.462-4.367 21.363-14.045 21.363-14.045-4.84 3.187-9.442 5.429-13.572 6.963-5.901 2.479-11.566 4.131-17.113 5.075-11.33 2.125-21.716 1.535-30.568-.118-6.728-1.298-12.51-3.186-17.35-5.075-2.714-1.062-5.664-2.36-8.615-4.012-.354-.236-.708-.354-1.062-.59-.236-.119-.354-.237-.472-.355-2.125-1.18-3.305-2.006-3.305-2.006s5.665 9.442 20.654 13.927c-3.54 4.485-7.907 9.796-7.907 9.796-26.083-.826-35.997-17.94-35.997-17.94 0-38.002 16.995-68.805 16.995-68.805 16.995-12.746 33.164-12.392 33.164-12.392l1.18 1.416c-21.244 6.137-31.04 15.461-31.04 15.461s2.596-1.416 6.963-3.422c12.628-5.547 22.66-7.082 26.791-7.436.708-.118 1.298-.236 2.007-.236a99.859 99.859 0 0123.84-.236c11.212 1.298 23.25 4.603 35.524 11.33 0 0-9.324-8.851-29.387-14.989l1.652-1.888s16.169-.354 33.164 12.392c0 0 16.995 30.804 16.995 68.806 0 0-10.032 17.113-36.115 17.939z" fill="#968867" stroke-width="1.18" id="path6" fill-opacity="1"/></svg>