<svg xmlns="http://www.w3.org/2000/svg" width="499.701" height="500" viewBox="0 0 132.213 132.292"><path d="M128.81 112.48 76.938 60.606 16.33 0h-4.737l-.967 2.457C8.075 8.944 6.984 15.578 7.474 21.642c.558 6.912 3.184 12.897 7.594 17.307L62.38 86.261l6.24-6.24 43.74 48.91c4.352 4.35 11.841 4.61 16.45 0 4.536-4.536 4.536-11.915 0-16.45zM40.456 75.303 3.401 112.358c-4.535 4.535-4.535 11.915 0 16.45 4.309 4.308 11.762 4.689 16.45 0l37.055-37.055zm86.177-53.276-21.02 21.02-5.483-5.484 21.02-21.02-5.484-5.483-21.02 21.02-5.483-5.484 21.02-21.02L104.7.093 77.283 27.51a19.354 19.354 0 0 0-5.64 12.54 11.17 11.17 0 0 1-.794 3.501l17.81 17.81a11.158 11.158 0 0 1 3.5-.794 19.35 19.35 0 0 0 12.54-5.64l27.418-27.417z" fill="#968867"/></svg>