<svg xmlns="http://www.w3.org/2000/svg" viewBox="0 0 512 512"><path d="M497.866 158.21L263.728 11.507a14.558 14.558 0 00-15.456 0L14.134 158.21a14.572 14.572 0 00-6.846 12.353c0 5.024 2.59 9.692 6.846 12.353l234.138 145.73a14.566 14.566 0 0015.456 0l234.138-145.73a14.572 14.572 0 006.846-12.353c0-5.024-2.59-9.692-6.846-12.353z" fill="#968867"/><path d="M497.866 245.647l-22.692-14.183-196.006 121.9A43.635 43.635 0 01256 360.011a43.7 43.7 0 01-23.197-6.66L36.822 231.468l-22.688 14.179A14.572 14.572 0 007.288 258c0 5.024 2.59 9.692 6.846 12.353l234.138 145.73a14.566 14.566 0 0015.456 0l234.138-145.73A14.572 14.572 0 00504.712 258c0-5.024-2.59-9.692-6.846-12.353z" fill="#968867"/><path d="M497.866 333.085L475.174 318.9 279.168 440.802A43.635 43.635 0 01256 447.448a43.7 43.7 0 01-23.197-6.66L36.822 318.906l-22.688 14.18a14.572 14.572 0 00-6.846 12.353c0 5.023 2.59 9.692 6.846 12.353l234.138 146.7a14.566 14.566 0 0015.456 0l234.138-146.7a14.572 14.572 0 006.846-12.353c0-5.024-2.59-9.692-6.846-12.353z" fill="#968867"/></svg>