<svg xmlns="http://www.w3.org/2000/svg" data-name="Layer 1" width="432.342" height="432.25"><path d="m30.333 348.499 24.302-24.302 53.425 53.424-24.303 24.303zM0 378.826l21.844-21.844 53.424 53.424-21.843 21.844zm95.915-95.896 21.024-21.024 53.424 53.424-21.024 21.024zm-32.79 32.784 24.302-24.303 53.425 53.425-24.303 24.302zM313.296 53.756l-193.75 193.745 28.405 28.406 145.778-145.778a6 6 0 0 1 8.485 8.485L156.435 284.391l-57.528-57.528a6 6 0 1 0-8.484 8.485L196.996 341.92a6 6 0 0 0 8.484-8.485l-20.639-20.639 193.747-193.745a110.656 110.656 0 0 0 25.794-40.761L432.342 0l-78.291 27.961a110.632 110.632 0 0 0-40.755 25.795z" fill="#968867"/></svg>