<svg xmlns="http://www.w3.org/2000/svg" viewBox="0 0 512.005 512.005"><path d="M508.877 88.453 423.544 3.12c-4.16-4.16-10.923-4.16-15.083 0l-24.469 24.469 18.219 18.219c4.16 4.16 4.16 10.923 0 15.083a10.716 10.716 0 0 1-15.104 0L368.91 42.672l-27.584 27.584 39.552 39.552c4.16 4.16 4.16 10.923 0 15.083a10.716 10.716 0 0 1-15.104 0l-39.531-39.552-27.584 27.584 18.219 18.219c4.16 4.16 4.16 10.923 0 15.083a10.716 10.716 0 0 1-15.104 0l-18.197-18.219-27.584 27.584 39.552 39.552c4.16 4.16 4.16 10.923 0 15.083a10.716 10.716 0 0 1-15.104 0l-39.531-39.552-27.584 27.584 18.219 18.219c4.16 4.16 4.16 10.923 0 15.083a10.716 10.716 0 0 1-15.104 0l-18.197-18.219-27.584 27.584 39.552 39.552c4.16 4.16 4.16 10.923 0 15.083a10.716 10.716 0 0 1-15.104 0l-39.531-39.552-27.584 27.584 18.219 18.219c4.16 4.16 4.16 10.923 0 15.083a10.716 10.716 0 0 1-15.104 0l-18.197-18.219-27.584 27.584 39.552 39.552c4.16 4.16 4.16 10.923 0 15.083a10.716 10.716 0 0 1-15.104 0l-39.531-39.552-27.584 27.584 18.219 18.219c4.16 4.16 4.16 10.923 0 15.083a10.716 10.716 0 0 1-15.104 0l-18.197-18.219-24.45 24.445c-4.16 4.16-4.16 10.923 0 15.083l85.333 85.333c2.069 2.091 4.8 3.136 7.531 3.136s5.461-1.045 7.552-3.115l405.333-405.333a10.7 10.7 0 0 0 0-15.104z" fill="#C8C8C8"/></svg>