<svg xmlns="http://www.w3.org/2000/svg" width="500" height="434.964"><g fill="#968867"><path d="M250 42.052c21.658 0 40.366-13.81 47.086-34.124-12.821 3.53-29.163 5.66-47.086 5.66-17.92 0-34.262-2.13-47.082-5.66 6.717 20.313 25.423 34.124 47.082 34.124z"/><path d="M499.377 67.033a11.457 11.457 0 0 0-5.957-6.553l-95.326-44.006A461 461 0 0 0 336.299.214 11.363 11.363 0 0 0 334.113 0c-5.164 0-9.788 3.565-10.938 8.793-7.617 33.533-37.301 58.64-73.176 58.64-35.874 0-65.56-25.105-73.175-58.64a11.215 11.215 0 0 0-13.126-8.58 462.765 462.765 0 0 0-61.825 16.261L6.581 60.478C3.775 61.771 1.62 64.145.64 67.031c-1.014 2.92-.831 6.072.597 8.827l41.383 81.671a11.232 11.232 0 0 0 13.29 5.724l45.964-13.623v274.036c0 6.223 5.077 11.298 11.317 11.298H386.81c6.223 0 11.285-5.077 11.285-11.298V149.633l45.996 13.623a11.26 11.26 0 0 0 3.24.479c4.16 0 8.086-2.326 10.05-6.203l41.399-81.67c1.394-2.757 1.594-5.909.597-8.83z"/></g></svg>