<svg xmlns="http://www.w3.org/2000/svg" width="500" height="500" viewBox="0 0 132.292 132.292"><path class="cls-2" d="M42.64 117.624c47.813 0 73.965-39.614 73.965-73.967 0-1.125 0-2.245-.076-3.36a52.892 52.892 0 0012.97-13.456 51.889 51.889 0 01-14.931 4.09 26.086 26.086 0 0011.429-14.379 52.097 52.097 0 01-16.507 6.31 26.02 26.02 0 00-44.302 23.71A73.804 73.804 0 0111.61 19.41a26.015 26.015 0 008.049 34.702 25.802 25.802 0 01-11.8-3.254v.33a26.005 26.005 0 0020.857 25.483 25.955 25.955 0 01-11.738.446 26.025 26.025 0 0024.287 18.053 52.162 52.162 0 01-32.285 11.15 52.918 52.918 0 01-6.188-.375 73.596 73.596 0 0039.846 11.657" fill="#968867" stroke-width=".507"/></svg>