<svg xmlns="http://www.w3.org/2000/svg" width="97.713" height="97.713"><path d="M48.855 1.036c-19.414 0-35.21 15.796-35.21 35.211 0 5.065 1.037 9.9 3.08 14.373 8.803 19.264 25.682 39.603 30.646 45.377a1.96 1.96 0 002.97 0c4.962-5.773 21.841-26.11 30.647-45.377 2.044-4.473 3.08-9.308 3.08-14.373C84.066 16.832 68.27 1.036 48.855 1.036zm0 53.5c-10.085 0-18.29-8.205-18.29-18.29 0-10.085 8.205-18.29 18.29-18.29 10.085 0 18.29 8.205 18.29 18.29.001 10.085-8.204 18.29-18.29 18.29z" fill="#968867"/></svg>