<svg width="500" height="500" data-name="Ebene 1" xmlns="http://www.w3.org/2000/svg"><defs><style/></defs><path d="M2.08 451.4c4.033 4.728 10.87 6.047 55.63 47.996 0 0 3.415 3.119 9.377-5.91 5.962-9.028 19.666-42.98 19.666-42.98s24.057-49.084 45.62-85.338l8.72-16.75s3.543-8.983 13.554-13.054l4.833 5.952s7.682 1.784 10.148 9.03c2.466 7.247 10.923 37.417 10.923 37.417s.087 3.395 3.648 4.546c3.561 1.152 10.796 4.776 20.28.234 9.482-4.543 11.796-10.83 11.796-10.83s.044-1.484-1.567-3.845c-1.61-2.36-6.799-12.665-7.325-16.722-.527-4.057-8.473-29.114-8.473-29.114s-1.634-2.701.201-7.286l-.335-2.273s-1.055-3.038 1.224-2.29c2.279.748 5.251 1.92 8.263.523 3.011-1.397 14.386-11.533 21.516-18.458 0 0 4.38-4.887 2.705-8.406l1.89-2.006s-.09-2.628 1.643-2.216c1.733.411 3.233 2.94 3.233 2.94l2.831 3.813s1.083.353.997-.783c-.085-1.136-2.145-5.76-3.673-8.066 0 0 1.438-2.658.54-4.188-.9-1.53-3.453-6.17-4.756-7.444l3.99-2.768s59.183 49.237 135.5 40.567c0 0 2.711-1.163 2.766-3.863l-4.955-38.638s.36-2.698-2.621-2.11c-2.982.589-58.072 6.978-101.15-30.977 0 0 .818-2.424-1.338-2.243l26.777-23.915s4.692-2.565 7.131-1.458c2.44 1.106 9.089-6.893 12.037-11.14 2.949-4.247 7.405-10.884 22.597-22.93 15.193-12.043 35.321-31.346 38.42-35.71 3.098-4.365 5.911-5.244 7.033-6.124 1.121-.88 2.156-2.179 1.283-3.907l42.964-35.774s1.568.46 2.94-.255c1.373-.714 3.451-2.222 2.666-4.146l55.832-45.39s6.502-1.72 7.37-7.234c0 0-.394-2.348-1.236-4.345 0 0 2.376-1.745 2.916-2.289s.566-1.895.566-1.895l1.122-.88s.711.287 1.409.103c.697-.185 1.334-1.534.076-3.443-1.258-1.91-1.536-2.419-1.465-3.562.07-1.142-1.753-2.852-3.538-2.66l-1.996-.85s-1.799.326-1.495 1.175c.304.849-.529 2.71-2.09 2.727 0 0-1.59-1.681-2.322-1.35-.732.333-1.631.193-1.918-.518-.286-.711-.75-2.764-.75-2.764s-.937-1.348-1.806-.455c-.87.893-1.035 1.298-1.035 1.298l-8.397-11.097s-1.861.092-1.888-2.303c-.028-2.395-2.986-4.423-2.986-4.423s-1.581-1.091-4.601 1.115-5.27 4.78-5.377 5.67c-.106.889-.335 2.034.83 4.341 1.167 2.307 2.337 1.952 2.337 1.952l5.596 22.83 1.84 2.346-34.016 27.262s-5.679-.053-9.793 1.887c0 0-4.05.278-5.053-.384-1.003-.663-13.933-4.206-13.933-4.206l-39.145 30.799-.281-.283-7.933 6.288s-2.834-1.2-3.898-.606c0 0-38.36 27.731-63.545 47.98 0 0-.722 2.62-.274 3.96.449 1.34-1.104.984-1.603.349-.498-.635-1.418-2.27-2.721-2.697-1.303-.428-4.56 1.04-4.56 1.04s-5.29 4.033-6.017 4.724c0 0-1.47-.718-2.91.834-1.438 1.553-1.673 2.944-1.673 2.944s-13.242 11.298-13.994 12.494c0 0-1.833-.796-3.262.385-1.428 1.182-3.18 2.799-3.18 2.799l-.233 1.088.83.437s-.943.8-1.49.565c-.548-.235-.283 1.25-.5 1.364-.217.115-1.242.19-1.559.015-.317-.173-2.377-.49-2.81-.27-.434.218-1.148 1.386-.922 1.75.226.364 1.587 1.714 2.458 2.055.871.34 1.946.708 1.946.708s.985-.592 1.135-1.555c.15-.963 2.961-2.385 2.961-2.385s1.612.668 2.168.534c.557-.135-.416.931-4.557 4.12 0 0 .146 1.88.476 2.224.33.344-120.19 97.774-120.19 97.774s-3.057 1.03-2.358 16.188c0 0-1.85.465-2.71 3.949-.86 3.483-.993 4.584-.228 4.982.764.397 1.939-1.07 1.939-1.07s-.297 4.855 1.124 6.82c0 0-10.793 12.11-10.922 14.023 0 0-.687-2.722-12.194 13.555 0 0-1.818-.802-3.728 1.177-1.91 1.978-1.878 5.098-1.878 5.098s-6.067 5.406-7.63 8.647c0 0-6.633 5.608-8.125 6.376-1.492.767-8.712 1.522-9.837 2.244-1.124.722-1.791-2.384-60.066 66.677 0 0-2.67 1.573-4.872 4.106-2.2 2.532-7.538 9.38-7.538 9.38s-3.074 1.929.96 6.657zM471.47 29.99a.878.878 0 00-.229-.015c-2.52.39-3.348-4.077-3.356-5.084-.01-1.04 1.701-2.502 1.701-2.502l5.31-4.006c4.21.078 4.702 5.37 4.702 5.37-6.908 5.637-7.993 6.252-8.128 6.237zm-30.4 45.344s-.272-.552.123-1.024l33.713-26.823s1.063.736 1.55.436c0 0 2.92-1.769 5.895-3.982 0 0 1.294-.045.45.573L442.437 77.08zm-29.576 8.191l-31.083 24.637c-2.7-2.311-4.907-1.223-4.907-1.223l-.704-.897 32.383-26.06c1.043-.416 2.12.752 2.12.752zm-29.58 42.868l-.364-1.083s3.527-2.688 5.183-4.068c1.656-1.38-.03-3.118-.03-3.118l32.147-25.23c1.8.036 1.526 1.943 1.526 1.943zm-74.656 34.596l3.04-2.386.238-1.238 49.94-39.196.626.798-5.892 4.704-.264 2.947-12.122 9.594-1.858-.313c-3.713 2.35-15.35 12.048-15.35 12.048l-.671 2.942-12.008 9.022c-.271-.755-2.218.048-2.218.048l-3.446 2.383c-.838-.148-.015-1.353-.015-1.353zm-118.5 143.94s8.988-3.429 11.477-.308c2.49 3.12 5.685 3.753 7.866 3.813 2.182.06 5.792-1.241 6.996-2.067 1.203-.826-.267-1.16-.267-1.16-3.725 1.514-5.224 1.04-7.902 1.168-2.678.128-6.045-5.445-6.231-6.144-.187-.7.183-6.386.183-6.386s12.859-10.656 13.979-11.535c1.12-.878 2.566-2.014 3.616-1.549 1.049.465 2.054 2.053 2.054 2.053l9.906 11.596c.387 1.467-.437 4.933-2.196 6.797-1.759 1.864-14.107 12.401-14.107 12.401s-5.203 4.044-7.319 4.94-6.21.04-6.916-.244c-.706-.284-.908-1.67-2.27-3.66-1.36-1.992-8.869-9.714-8.869-9.714z" fill="#968867" stroke-width=".076"/></svg>