<svg xmlns="http://www.w3.org/2000/svg" width="466.725" height="682.665" viewBox="0 0 123.488 180.622"><g fill="#968867"><path d="M8.762 122.858v8.927c0 26.929 21.908 48.837 48.836 48.837 26.929 0 48.836-21.908 48.836-48.837v-8.927H8.762"/><path d="M26.41 42.09c-8.646 0-15.68-7.034-15.68-15.68s7.034-15.68 15.68-15.68c6.763 0 12.538 4.303 14.734 10.315h-8.052v10.73h8.052C38.948 37.787 33.173 42.09 26.41 42.09zm81.314 18.385C98.67 49.869 86.509 42.41 73.106 39.157v-7.382h8.998v-10.73h-8.998v-5.537C73.106 6.957 66.15 0 57.598 0 52.1 0 47.265 2.878 44.51 7.204 39.78 2.744 33.41 0 26.41 0 11.848 0 0 11.848 0 26.41c0 14.563 11.848 26.41 26.41 26.41a26.267 26.267 0 0015.68-5.173v9.242c-19.35 6.496-33.328 24.8-33.328 46.31v8.928h97.672V103.2c0-21.51-13.978-39.815-33.328-46.311v-6.624c10.214 3.005 19.445 8.963 26.456 17.177a55.131 55.131 0 0113.195 35.758v42.228h10.73V103.2a65.87 65.87 0 00-15.763-42.724"/></g></svg>