<svg xmlns="http://www.w3.org/2000/svg" width="500mm" height="1912.781" viewBox="0 0 500 506.09"><path d="M493.82 418.197c-.243-3.139-1.649-6.167-3.955-8.429l-199.32-199.312c7.847-18.477 11.983-38.48 11.983-59.153 0-40.405-15.756-78.426-44.281-107.02C229.687 15.746 191.69 0 151.26 0 110.81 0 72.893 15.746 44.28 44.307c-59.03 58.995-59.046 154.964-.01 213.959 28.606 28.614 66.55 44.376 106.973 44.376 20.678 0 40.637-4.18 59.15-12.027l65.48 65.526c2.724 2.697 6.322 4.117 10.198 3.995l35.68-1.256-1.162 35.774c-.113 3.772 1.248 7.45 3.989 10.138a13.45 13.45 0 0010.09 3.989l35.82-1.224-1.292 35.731a13.943 13.943 0 003.98 10.147c2.724 2.688 5.895 4.126 10.188 3.997l35.733-1.214-1.196 35.739c-.218 3.962 1.456 7.769 4.29 10.483 2.61 2.375 5.871 3.65 9.312 3.65.495 0 .999-.016 1.5-.06l54.791-6.087c7.396-.805 12.79-7.413 12.155-14.836zM132.99 133.035c-16.83 16.803-44.03 16.803-60.824 0-16.812-16.82-16.812-44.02 0-60.815 16.794-16.797 43.985-16.814 60.824-.009 16.794 16.803 16.778 44.021 0 60.824zm314.068 289.73c-2.002 1.995-4.68 2.992-7.282 2.992-2.61 0-5.29-.997-7.283-2.992l-169.591-169.64a144.193 144.193 0 0012.92-16.086L447.05 408.24c4.006 3.998 4.006 10.528.008 14.524z" fill="#968867"/></svg>