<svg xmlns="http://www.w3.org/2000/svg" height="500pt" viewBox="0 -44 500 500" width="500pt"><path d="M2.678 52.305h494.644V74.09H2.678zm494.644-29.327v-7.034c0-8.099-6.566-14.665-14.665-14.665H17.343c-8.099 0-14.665 6.566-14.665 14.665v7.034zM193.69 328.123a89.465 89.465 0 01-1.237-1.596c-14.16-18.718-21.96-43.384-21.96-69.454 0-26.07 7.8-50.735 21.96-69.457a89.43 89.43 0 011.238-1.597h-65.5a145.081 145.081 0 01-42.915 42.916v56.272a145.125 145.125 0 0142.916 42.916zm90.467-19.288c10.333-13.661 16.024-32.044 16.024-51.766 0-19.718-5.691-38.104-16.024-51.762-9.408-12.438-21.541-19.288-34.157-19.288-12.616 0-24.749 6.85-34.157 19.288-10.333 13.658-16.024 32.04-16.024 51.762s5.691 38.105 16.024 51.766c9.408 12.439 21.541 19.288 34.157 19.288 12.616 0 24.749-6.85 34.157-19.288zm23.39-121.219c14.16 18.718 21.96 43.384 21.96 69.453 0 26.07-7.8 50.736-21.96 69.458-.407.54-.823 1.068-1.238 1.596h65.5a145.182 145.182 0 0142.915-42.92v-56.268a145.125 145.125 0 01-42.916-42.916H306.31c.415.525.83 1.057 1.238 1.597zm0 0" fill="#968867"/><path d="M2.678 103.418V396.06c0 8.098 6.566 14.661 14.665 14.661h465.314c8.099 0 14.665-6.563 14.665-14.661V103.418zm377.38 254.032H119.942a14.66 14.66 0 01-12.763-7.442 115.833 115.833 0 00-43.788-43.788 14.664 14.664 0 01-7.442-12.763v-72.775c0-5.283 2.846-10.16 7.446-12.763a115.84 115.84 0 0043.784-43.784c2.6-4.6 7.476-7.442 12.763-7.442h260.116a14.66 14.66 0 0112.763 7.442 115.86 115.86 0 0043.788 43.788 14.664 14.664 0 017.442 12.763v72.774c0 5.284-2.846 10.16-7.442 12.764a115.823 115.823 0 00-43.788 43.784 14.66 14.66 0 01-12.763 7.442zm0 0" fill="#968867"/></svg>