<svg xmlns="http://www.w3.org/2000/svg" width="500" height="472.783" viewBox="0 0 132.292 125.091"><defs><clipPath clipPathUnits="userSpaceOnUse" id="a"><path d="M0 6.629h2380v2250H0z"/></clipPath></defs><g clip-path="url(#a)" transform="matrix(.05568 0 0 -.05568 0 125.646)" fill="#968867"><path d="M1552.62 680.449V421.66c0-12.961 10.58-23.512 23.51-23.512h776.33c12.97 0 23.52 10.551 23.52 23.512v258.789c0 12.973-10.55 23.52-23.52 23.52h-776.33c-12.93 0-23.51-10.547-23.51-23.52zM23.52 398.148h776.32c12.969 0 23.519 10.551 23.519 23.512v258.789c0 12.973-10.55 23.52-23.519 23.52H23.52c-12.97 0-23.52-10.547-23.52-23.52V421.66c0-12.961 10.55-23.512 23.52-23.512z"/><path d="M424.531 1937.33a23.545 23.545 0 011.641-21.84c58.09-92.73 91.367-221.68 91.367-353.79 0-133.9-32.379-259.45-91.168-353.51-32.781-52.5-103.519-140.51-208.75-140.51-12.973 0-23.562-10.55-23.562-23.52V813.73H799.84c73.519 0 133.281-59.761 133.281-133.281V421.66c0-73.512-59.762-133.281-133.281-133.281H194.059V33.539c0-12.969 10.589-23.559 23.562-23.559H2158.52c12.96 0 23.51 10.59 23.51 23.56v254.839h-605.86c-73.51 0-133.32 59.769-133.32 133.281v258.789c0 73.52 59.81 133.281 133.32 133.281h605.9v230.43c0 12.97-10.55 23.52-23.55 23.52-105.24 0-175.94 88.05-208.75 140.51-58.79 94.06-91.18 219.61-91.18 353.51 0 134.03 32.43 259.69 91.33 353.79 4.14 6.57 4.73 14.73 1.68 21.84a23.449 23.449 0 01-17.07 13.71l-500.12 98.24c-9.92 1.95-20.03-2.77-25-11.44-5-8.79-3.82-19.77 2.93-27.31 49.46-55.23 76.64-126.48 76.64-200.66 0-165.98-135-301.02-300.97-301.02-165.98 0-301.022 135.04-301.022 301.02 0 74.14 27.231 145.39 76.684 200.66a23.36 23.36 0 012.93 27.31c-4.18 7.34-11.993 11.91-20.391 11.91-1.52 0-3.09-.16-4.57-.47l-500.039-98.24a23.465 23.465 0 01-17.071-13.71zm438.047 208.32v48.24a62.73 62.73 0 01-22.379 48.01c-14.179 11.91-32.898 16.99-51.14 13.79l-258.75-45.08c-30.039-5.23-51.989-31.33-51.989-61.84v-78.63zm1035.232-75.51v78.63c0 30.51-21.91 56.61-51.95 61.84l-258.79 45.08c-18.24 3.2-36.99-1.88-51.13-13.79-14.18-11.92-22.39-29.49-22.39-48.01v-48.24z"/></g></svg>